<svg xmlns="http://www.w3.org/2000/svg" width="63.66" height="30.08" viewBox="0 0 63.66 30.08">
	<style type="text/css">
		.st0{fill:#494949;}
	</style>
	<path class="st0" d="M7.55,9.16L4.98,15.65L10.43,15.65ZM10.46,1.21L10.61,1.21C17.9,17.93 18.39,18.88 18.39,18.88C19.43,21.19 20.41,21.22 20.99,21.27L20.99,21.5L10.89,21.5L10.89,21.27C13.2,21.27 11.47,17.9 11.47,17.9L10.55,15.91L4.9,15.91C4.32,17.24 4.84,21.27 8.3,21.27L8.3,21.5L0,21.5L0,21.27C0.86,21.22 2.42,20.98 4.64,15.91Z"/>
	<path class="st0" d="M28.34,21.27L28.34,21.5L21.13,21.5L21.13,21.27C22.23,20.96 22.26,19.75 22.26,18.25L22.26,3.28C22.26,2.27 21.91,1.87 20.73,1.44L20.73,1.21L27.16,0L27.16,18.25C27.16,19.83 27.3,20.99 28.34,21.27"/>
	<path class="st0" d="M29.64,4.43C29.64,2.91 30.85,1.7 32.38,1.7C33.9,1.7 35.14,2.91 35.14,4.43C35.14,5.96 33.9,7.17 32.38,7.17C30.85,7.17 29.64,5.96 29.64,4.43M36.33,21.27L36.33,21.5L29.12,21.5L29.12,21.27C30.21,20.96 30.24,19.72 30.24,18.25L30.24,11.21C30.24,10.2 29.92,9.8 28.74,9.37L28.74,9.13L35.14,7.92L35.14,18.25C35.14,19.83 35.29,20.98 36.33,21.27"/>
	<path class="st0" d="M46.91,20.21C46.91,20.21 45.81,21.76 42.47,21.76C38.98,21.76 37.34,20.78 37.34,20.78L37.34,17.01L37.59,17.01C38.17,19.69 40.56,21.5 42.47,21.5C44.51,21.5 44.98,19.11 42.78,17.67L39.87,15.91C37.16,14.12 36.44,11.27 38.2,9.31C38.2,9.31 39.27,7.92 42.55,7.92C45.87,7.92 47.25,8.73 47.25,8.73L47.25,11.67L46.99,11.67C46.47,9.08 44.23,8.18 42.55,8.18C40.68,8.18 39.79,10.06 42.29,11.64L45.21,13.46C47.83,15.05 48.49,18.3 46.91,20.21"/>
	<path class="st0" d="M56.45,14.47C54.09,14.99 54.12,16.75 54.12,18.1C54.12,18.1 54.09,20.01 55.24,20.01C55.73,20.01 56.14,19.6 56.45,18.91ZM63.66,19.66C63.26,20.93 61.76,21.76 59.94,21.76C59.94,21.76 56.74,21.76 56.48,19.17C56.11,20.67 54.64,21.76 52.59,21.76C51.49,21.76 48.98,21.27 48.98,18.82C48.98,15.94 51.32,15.39 56.45,14.18L56.45,12.34C56.45,9.34 54.75,7.72 52.76,8.76C52.76,8.76 52.13,9.13 53.11,9.48C53.6,9.65 53.91,10.06 54.14,10.58C54.58,11.64 54.09,12.8 53.02,13.26C51.98,13.66 50.8,13.17 50.37,12.13C50.08,11.38 50.22,10.52 50.71,10C51.06,9.62 51.58,9.11 52.65,8.53C53.94,7.84 55.36,7.92 55.36,7.92C59.13,7.92 61.24,10.29 61.24,13.69L61.24,17.99C61.24,17.99 61.24,20.06 62.62,20.01C62.62,20.01 63.34,20.01 63.49,19.51Z"/>
	<path class="st0" d="M11.2,28.82L11.86,28.82C11.98,28.82 12.08,28.78 12.16,28.71C12.24,28.64 12.28,28.54 12.28,28.42C12.28,28.29 12.24,28.19 12.17,28.11C12.09,28.04 11.99,28 11.87,28L11.2,28ZM11.2,26.55L11.2,27.33L11.77,27.33C11.9,27.33 12,27.3 12.08,27.23C12.16,27.17 12.2,27.07 12.2,26.94C12.2,26.82 12.16,26.72 12.08,26.65C12,26.58 11.9,26.55 11.77,26.55ZM10.32,25.88L11.89,25.88C12.25,25.88 12.55,25.97 12.76,26.15C12.98,26.33 13.09,26.55 13.09,26.83C13.09,27.24 12.85,27.51 12.38,27.66C12.62,27.69 12.81,27.79 12.96,27.96C13.1,28.13 13.17,28.32 13.17,28.55C13.17,28.84 13.07,29.06 12.86,29.23C12.65,29.4 12.35,29.49 11.97,29.49L10.32,29.49Z"/>
	<path class="st0" d="M18.46,28.43C18.64,28.24 18.72,27.99 18.72,27.68C18.72,27.36 18.64,27.11 18.46,26.92C18.29,26.73 18.06,26.64 17.77,26.64C17.48,26.64 17.25,26.73 17.08,26.92C16.91,27.11 16.82,27.36 16.82,27.68C16.82,27.99 16.91,28.24 17.08,28.43C17.25,28.62 17.48,28.71 17.77,28.71C18.06,28.71 18.29,28.62 18.46,28.43M16.46,29C16.1,28.65 15.93,28.21 15.93,27.68C15.93,27.14 16.1,26.7 16.46,26.35C16.82,26.01 17.26,25.83 17.78,25.83C18.3,25.83 18.73,26.01 19.09,26.35C19.44,26.7 19.62,27.14 19.62,27.68C19.62,28.21 19.44,28.65 19.08,29C18.73,29.35 18.29,29.52 17.77,29.52C17.26,29.52 16.82,29.35 16.46,29"/>
	<path class="st0" d="M22.52,28.03L22.52,25.88L23.4,25.88L23.4,28.03C23.4,28.25 23.45,28.42 23.56,28.53C23.66,28.65 23.82,28.71 24.02,28.71C24.23,28.71 24.39,28.65 24.5,28.53C24.61,28.42 24.66,28.25 24.66,28.03L24.66,25.88L25.54,25.88L25.54,28.03C25.54,28.35 25.46,28.63 25.32,28.86C25.17,29.09 24.98,29.26 24.75,29.36C24.52,29.47 24.28,29.52 24.01,29.52C23.59,29.52 23.24,29.39 22.95,29.13C22.66,28.87 22.52,28.51 22.52,28.03"/>
	<path class="st0" d="M28.39,26.55L28.39,25.88L31.24,25.88L31.24,26.55L30.25,26.55L30.25,29.49L29.38,29.49L29.38,26.55Z"/>
	<path class="st0" d="M35 -4.19L34.12 -4.19L34.12 -0.59L35 -0.59Z"/>
	<path class="st0" d="M39.06,26.92C38.89,27.11 38.8,27.36 38.8,27.68C38.8,27.99 38.89,28.24 39.06,28.43C39.23,28.62 39.46,28.71 39.75,28.71C40.04,28.71 40.27,28.62 40.45,28.43C40.62,28.24 40.71,27.99 40.71,27.68C40.71,27.36 40.62,27.11 40.45,26.92C40.27,26.73 40.04,26.64 39.75,26.64C39.46,26.64 39.23,26.73 39.06,26.92M39.76,29.52C39.24,29.52 38.8,29.35 38.44,29C38.08,28.65 37.91,28.21 37.91,27.68C37.91,27.14 38.08,26.7 38.44,26.35C38.8,26.01 39.24,25.83 39.76,25.83C40.28,25.83 40.71,26.01 41.07,26.35C41.42,26.7 41.6,27.14 41.6,27.68C41.6,27.98 41.54,28.25 41.42,28.5C41.29,28.76 41.13,28.97 40.92,29.13L41.65,30.08L40.59,30.08L40.15,29.48C40.01,29.51 39.88,29.52 39.76,29.52"/>
	<path class="st0" d="M44.53,28.03L44.53,25.88L45.41,25.88L45.41,28.03C45.41,28.25 45.46,28.42 45.57,28.53C45.68,28.65 45.83,28.71 46.04,28.71C46.24,28.71 46.4,28.65 46.51,28.53C46.62,28.42 46.67,28.25 46.67,28.03L46.67,25.88L47.55,25.88L47.55,28.03C47.55,28.35 47.48,28.63 47.33,28.86C47.18,29.09 46.99,29.26 46.76,29.36C46.54,29.47 46.29,29.52 46.02,29.52C45.6,29.52 45.25,29.39 44.96,29.13C44.68,28.87 44.53,28.51 44.53,28.03"/>
	<path class="st0" d="M52.84,25.87L52.84,26.54L51.53,26.54L51.53,27.32L52.68,27.32L52.68,27.98L51.53,27.98L51.53,28.82L52.84,28.82L52.84,29.49L50.65,29.49L50.65,25.87Z"/>
</svg>