<svg xmlns="http://www.w3.org/2000/svg"
 xmlns:xlink="http://www.w3.org/1999/xlink"
 width="35px" height="27px"  viewBox="0 0 35 27">
<path fill-rule="evenodd"  fill="#111c39"
 d="M15.670837,15.162598 C15.151489,12.424316 13.344238,10.211182 10.948364,9.370361 C10.283691,9.147217 9.591187,9.031006 8.898682,9.031006 C7.1815186,9.031006 5.5266113,9.748291 4.2525024,11.036621 C1.4342041,13.889893 1.2334595,18.756592 3.7955322,21.894775 C6.357544,25.03418 10.726807,25.26538 13.545105,22.412598 C14.985352,20.962646 15.809448,18.895752 15.809448,16.720703 C15.809448,16.20337 15.760925,15.671875 15.670837,15.162598 ZM11.952454,21.833496 C10.131348,22.612549 8.074707,22.118652 6.7037354,20.58374 C6.239746,20.07544 5.8727417,19.457764 5.637329,18.78711 C5.637329,18.78711 4.578003,18.78711 4.578003,18.78711 C4.1971436,18.78711 3.885498,18.440918 3.885498,18.01538 C3.885498,17.591553 4.1971436,17.244629 4.578003,17.244629 C4.578003,17.244629 5.2841797,17.244629 5.2841797,17.244629 C5.2564697,16.959229 5.2564697,16.681396 5.2703247,16.396484 C5.2703247,16.396484 4.578003,16.396484 4.578003,16.396484 C4.1971436,16.396484 3.885498,16.049316 3.885498,15.625977 C3.885498,15.201172 4.1971436,14.854248 4.578003,14.854248 C4.578003,14.854248 5.5612793,14.854248 5.5612793,14.854248 C5.803528,14.098633 6.191284,13.419189 6.7037354,12.856445 C8.081726,11.322266 10.138306,10.843994 11.952454,11.615234 C12.305603,11.769775 12.485596,12.20874 12.347168,12.609619 C12.208679,13.003174 11.813965,13.203857 11.453918,13.049072 C10.152161,12.486572 8.677124,12.841309 7.6870117,13.936279 C7.451599,14.214111 7.2507324,14.514404 7.0845947,14.846436 C7.0845947,14.846436 11.121582,14.846436 11.121582,14.846436 C11.502319,14.846436 11.813965,15.1936035 11.813965,15.617432 C11.813965,16.041748 11.502319,16.388672 11.121582,16.388672 C11.121582,16.388672 6.6760254,16.388672 6.6760254,16.388672 C6.6483154,16.674072 6.6552124,16.959229 6.6968384,17.237305 C6.6968384,17.237305 10.761475,17.237305 10.761475,17.237305 C11.142334,17.237305 11.453918,17.584229 11.453918,18.008057 C11.453918,18.432861 11.142334,18.778564 10.761475,18.778564 C10.761475,18.778564 7.2023315,18.778564 7.2023315,18.778564 C7.3268433,19.041504 7.493164,19.28003 7.6938477,19.48169 C8.677124,20.58374 10.152161,20.938965 11.460815,20.383545 C11.460815,20.383545 11.460815,20.383545 11.460815,20.391113 C11.820923,20.244873 12.215515,20.4375 12.354126,20.838135 C12.485596,21.240479 12.3125,21.679443 11.952454,21.833496 ZM24.118652,2.746338 C22.706116,2.2680664 20.767273,1.998291 18.786865,1.998291 C16.792603,1.998291 14.922974,2.2680664 13.524292,2.746338 C12.063232,3.2470703 11.744751,3.7717285 11.737854,3.8793945 C11.744751,3.8879395 11.744751,3.8879395 11.744751,3.902832 C11.779297,4.072754 12.194824,4.604248 13.683594,5.0827637 C15.061584,5.5300293 16.875671,5.7768555 18.786865,5.7768555 C20.767273,5.7768555 22.706116,5.4992676 24.111816,5.0290527 C25.621277,4.527588 25.946716,3.9960938 25.946716,3.8879395 C25.946716,3.7797852 25.621277,3.2556152 24.118652,2.746338 ZM18.482178,20.27539 C18.482178,20.27539 18.482178,20.136719 18.482178,20.136719 C17.845215,20.129395 17.221863,20.090332 16.633423,20.036377 C16.31482,20.954346 15.864746,21.809814 15.303833,22.573975 C16.370178,22.766113 17.44342,22.874512 18.516785,22.889648 C18.516785,22.889648 18.482178,20.27539 18.482178,20.27539 ZM24.50647,6.501465 C22.955383,7.025635 20.919556,7.3117676 18.779968,7.3117676 C16.737183,7.3117676 14.791504,7.050049 13.288879,6.5632324 C12.769531,6.4091797 12.271057,6.192871 11.793152,5.923584 C11.793152,5.923584 11.841675,8.098389 11.841675,8.098389 C12.624084,8.4296875 13.351135,8.885254 14.009033,9.4626465 C14.029785,9.470703 14.04364,9.470703 14.064453,9.478516 C15.393921,9.856934 17.06958,10.057617 18.779968,10.057617 C20.760254,10.057617 22.706116,9.780029 24.111816,9.309082 C25.621277,8.799805 25.946716,8.267822 25.946716,8.167969 C25.93988,8.036621 25.974426,7.9050293 26.036682,7.7976074 C26.036682,7.7976074 26.036682,5.822998 26.036682,5.822998 C25.552002,6.1088867 25.039673,6.340088 24.50647,6.501465 ZM24.513367,10.790039 C22.955383,11.314209 20.919556,11.5998535 18.779968,11.5998535 C17.727356,11.5998535 16.681824,11.522705 15.643188,11.375488 C16.20404,12.239014 16.619446,13.211182 16.88269,14.244629 C17.47821,14.291016 18.12207,14.321777 18.786865,14.321777 C18.807556,14.321777 18.82837,14.321777 18.849243,14.321777 C19.984802,12.925781 23.059265,12.232666 26.036682,12.139893 C26.036682,12.139893 26.036682,10.095459 26.036682,10.095459 C25.552002,10.380615 25.046509,10.60498 24.513367,10.790039 ZM17.021118,18.517334 C17.485107,18.555908 17.96289,18.578613 18.454529,18.586426 C18.454529,18.586426 18.412964,15.918945 18.412964,15.918945 C18.412964,15.903076 18.406006,15.879395 18.406006,15.864014 C17.976624,15.855957 17.554321,15.841797 17.145752,15.810791 C17.173462,16.118896 17.187317,16.419678 17.18042,16.71997 C17.18042,17.321777 17.124939,17.923096 17.021118,18.517334 ZM33.99286,19.489014 C33.99286,19.489014 33.99286,17.514893 33.99286,17.514893 C33.50818,17.800049 32.995728,18.023682 32.462524,18.193115 C30.918518,18.702148 28.9104,18.980225 26.805298,18.980225 C24.811157,18.980225 22.893005,18.718018 21.404358,18.255127 C20.8573,18.092773 20.330994,17.86914 19.8255,17.584229 C19.8255,17.584229 19.85321,19.350342 19.85321,19.350342 C19.85321,19.350342 19.867065,20.013184 19.867065,20.013184 C20.434937,20.753662 23.010742,21.70288 26.812256,21.70288 C28.820312,21.70288 30.703796,21.439941 32.123352,20.962646 C33.618958,20.452637 33.93756,19.928223 33.93756,19.820312 C33.93756,19.705078 33.999817,19.588867 33.999817,19.489014 C33.999817,19.489014 33.99286,19.489014 33.99286,19.489014 ZM32.524902,22.434814 C30.973877,22.967285 28.951965,23.244385 26.812256,23.244385 C24.29181,23.244385 21.542847,22.820557 19.894775,21.887451 C19.894775,21.887451 19.929321,24.11621 19.929321,24.11621 C19.929321,24.12378 19.929321,24.12378 19.929321,24.131592 C19.929321,24.247803 20.227112,24.76416 21.69513,25.26538 C23.079956,25.73584 24.949585,25.997559 26.950745,25.997559 C28.945068,25.997559 30.814575,25.727783 32.220276,25.242188 C33.688232,24.73291 33.999817,24.201416 33.999817,24.093262 C33.999817,24.093262 33.999817,21.756104 33.999817,21.756104 C33.52893,22.03418 33.037354,22.264648 32.524902,22.434814 ZM32.151,14.429443 C30.738403,13.944336 28.799622,13.697266 26.819214,13.697266 C26.819214,13.697266 26.729187,13.697266 26.729187,13.697266 C24.880371,13.697266 23.121521,13.928467 21.771362,14.352783 C20.351807,14.799805 19.846252,15.30127 19.776978,15.51709 C19.790833,15.555664 19.797852,15.6015625 19.80481,15.648682 C19.93628,15.879395 20.469482,16.35791 21.792053,16.76709 C23.163086,17.190186 24.949585,17.430176 26.819214,17.430176 C28.799622,17.430176 30.669128,17.175537 32.088684,16.704346 C33.625977,16.196533 33.972107,15.663818 33.979004,15.54834 C33.958252,15.416504 33.612,14.923584 32.151,14.429443 Z"/>
</svg>