<svg xmlns="http://www.w3.org/2000/svg"
 xmlns:xlink="http://www.w3.org/1999/xlink"
 width="30px" height="28px"  viewBox="0 0 30 28">
<path fill-rule="evenodd"  fill="#111c39"
 d="M14.999634,1.998291 C16.26294,1.998291 17.28711,3.0056152 17.28711,4.248291 C17.28711,5.4902344 16.26294,6.498047 14.999634,6.498047 C13.736206,6.498047 12.712036,5.4902344 12.712036,4.248291 C12.712036,3.0056152 13.736206,1.998291 14.999634,1.998291 ZM18.712158,5.0737305 C18.327637,6.7438965 16.812744,7.998047 14.999878,7.998047 C13.187012,7.998047 11.671997,6.7438965 11.287476,5.0737305 C9.92395,5.3728027 8.89978,6.567627 8.89978,7.998047 C8.89978,7.998047 8.89978,10.998047 8.89978,10.998047 C8.89978,11.824951 9.5842285,12.498291 10.424805,12.498291 C11.265503,12.498291 11.949951,11.824951 11.949951,10.998047 C11.949951,10.998047 11.949951,9.498047 11.949951,9.498047 C11.949951,9.498047 18.049927,9.498047 18.049927,9.498047 C18.049927,9.498047 18.049927,10.998047 18.049927,10.998047 C18.049927,11.824951 18.734253,12.498291 19.57483,12.498291 C20.415527,12.498291 21.099854,11.824951 21.099854,10.998047 C21.099854,10.998047 21.099854,7.998047 21.099854,7.998047 C21.099854,6.567627 20.075806,5.3728027 18.712158,5.0737305 ZM26.81836,20.328125 C25.724121,19.707275 24.325195,20.075928 23.69336,21.151855 C23.061768,22.228516 23.436523,23.604004 24.530762,24.225098 C25.624756,24.84668 27.074707,24.477783 27.706299,23.401611 C28.338135,22.325928 27.912354,20.949951 26.81836,20.328125 ZM25.42273,15.205811 C25.42273,15.205811 22.781372,13.705322 22.781372,13.705322 C22.053345,13.291992 21.11853,13.5390625 20.698242,14.254883 C20.277832,14.970459 20.52832,15.890137 21.25647,16.303467 C21.25647,16.303467 22.577148,17.053467 22.577148,17.053467 C22.577148,17.053467 19.5271,22.249512 19.5271,22.249512 C19.5271,22.249512 18.20642,21.499756 18.20642,21.499756 C17.478271,21.086426 16.54358,21.333252 16.123169,22.049316 C15.702881,22.76538 15.953369,23.68457 16.681519,24.098145 C16.681519,24.098145 19.322754,25.597656 19.322754,25.597656 C20.582153,26.312988 22.146362,26.03833 23.091064,25.025879 C21.812622,23.864014 21.466309,21.94629 22.37268,20.401855 C23.279175,18.85791 25.140503,18.193848 26.803589,18.701904 C27.22229,17.39038 26.682129,15.920898 25.42273,15.205811 ZM6.3062744,21.151855 C5.6745605,20.075928 4.2755127,19.707275 3.1813965,20.328125 C2.0872803,20.949951 1.661499,22.325928 2.293335,23.401611 C2.9249268,24.478271 4.374878,24.84668 5.468872,24.225342 C6.5631104,23.604004 6.9379883,22.228516 6.3062744,21.151855 ZM13.876465,22.049316 C13.456055,21.333252 12.521362,21.086426 11.793213,21.499756 C11.793213,21.499756 10.472534,22.249512 10.472534,22.249512 C10.472534,22.249512 7.4224854,17.053467 7.4224854,17.053467 C7.4224854,17.053467 8.743286,16.303467 8.743286,16.303467 C9.471313,15.890137 9.72168,14.970459 9.301514,14.254883 C8.8811035,13.5390625 7.946289,13.291992 7.2182617,13.705322 C7.2182617,13.705322 4.5770264,15.205811 4.5770264,15.205811 C3.317627,15.920898 2.7774658,17.39038 3.196167,18.701904 C4.859131,18.193848 6.720581,18.85791 7.626953,20.401855 C8.533447,21.94629 8.187012,23.864014 6.9085693,25.025879 C7.8535156,26.03833 9.417603,26.312988 10.677002,25.597656 C10.677002,25.597656 13.318237,24.098145 13.318237,24.098145 C14.046387,23.68457 14.296875,22.76538 13.876465,22.049316 Z"/>
</svg>