<svg xmlns="http://www.w3.org/2000/svg"
 xmlns:xlink="http://www.w3.org/1999/xlink"
 width="18px" height="15px"  viewBox="0 0 18 15">
<path fill-rule="evenodd"  fill="#ffffff"
 d="M16.99997,3.4194336 C16.44217,3.6601562 15.847778,3.8198242 15.228088,3.897461 C15.865631,3.522461 16.352112,2.9335938 16.580872,2.2231445 C15.986481,2.5722656 15.330261,2.8188477 14.63092,2.9570312 C14.066498,2.364746 13.262085,1.9990234 12.384674,1.9990234 C10.682129,1.9990234 9.311462,3.359375 9.311462,5.0273438 C9.311462,5.2680664 9.332092,5.498535 9.382782,5.7177734 C6.826172,5.5947266 4.564026,4.388672 3.044342,2.5507812 C2.7789612,3.0043945 2.6234436,3.522461 2.6234436,4.0810547 C2.6234436,5.1293945 3.1718445,6.059082 3.9892883,6.5976562 C3.4952393,6.588379 3.0105896,6.4467773 2.5999756,6.224121 C2.5999756,6.234375 2.5999756,6.2456055 2.5999756,6.2578125 C2.5999756,7.7285156 3.6658936,8.95166 5.0636597,9.233398 C4.813385,9.300781 4.540558,9.33252 4.257416,9.33252 C4.0605774,9.33252 3.8618164,9.322266 3.6752625,9.280762 C4.0737305,10.47998 5.204315,11.361816 6.548645,11.390625 C5.5024414,12.195801 4.174011,12.681152 2.7359314,12.681152 C2.4837036,12.681152 2.2417603,12.669922 1.9999695,12.639648 C3.362152,13.504883 4.9764404,13.999023 6.7174377,13.999023 C12.376221,13.999023 15.469879,9.383301 15.469879,5.3828125 C15.469879,5.2495117 15.4653015,5.120117 15.458679,4.991699 C16.06897,4.564453 16.581787,4.0322266 16.99997,3.4194336 Z"/>
</svg>