<svg xmlns="http://www.w3.org/2000/svg"
 xmlns:xlink="http://www.w3.org/1999/xlink"
 width="9px" height="15px"  viewBox="0 0 9 15">
<path fill-rule="evenodd"  fill="#d9d9d9"
 d="M7.7739563,2.0009766 C7.7739563,2.0009766 6.3347473,1.9990234 6.3347473,1.9990234 C4.718048,1.9990234 3.6733093,3.1572266 3.6733093,4.9521484 C3.6733093,4.9521484 3.6733093,6.3134766 3.6733093,6.3134766 C3.6733093,6.3134766 2.2263184,6.3134766 2.2263184,6.3134766 C2.1012573,6.3134766 1.9999695,6.42334 1.9999695,6.559082 C1.9999695,6.559082 1.9999695,8.53125 1.9999695,8.53125 C1.9999695,8.666016 2.1013489,8.775879 2.2263184,8.775879 C2.2263184,8.775879 3.6732178,8.775879 3.6732178,8.775879 C3.6732178,8.775879 3.6732178,13.753906 3.6732178,13.753906 C3.6732178,13.889648 3.774475,13.999023 3.8994446,13.999023 C3.8994446,13.999023 5.787262,13.999023 5.787262,13.999023 C5.9123535,13.999023 6.0136414,13.88916 6.0136414,13.753906 C6.0136414,13.753906 6.0136414,8.775879 6.0136414,8.775879 C6.0136414,8.775879 7.705414,8.775879 7.705414,8.775879 C7.8303833,8.775879 7.931671,8.666016 7.931671,8.53125 C7.931671,8.53125 7.9323425,6.559082 7.9323425,6.559082 C7.9323425,6.492676 7.9084473,6.4316406 7.866089,6.3847656 C7.823639,6.3393555 7.7659607,6.3134766 7.7059937,6.3134766 C7.7059937,6.3134766 6.013733,6.3134766 6.013733,6.3134766 C6.013733,6.3134766 6.013733,5.159668 6.013733,5.159668 C6.013733,4.604004 6.1359863,4.323242 6.804199,4.323242 C6.804199,4.323242 7.7737427,4.322754 7.7737427,4.322754 C7.89859,4.322754 7.999878,4.2128906 7.999878,4.0776367 C7.999878,4.0776367 7.999878,2.2460938 7.999878,2.2460938 C7.999878,2.1103516 7.898712,2.0014648 7.7739563,2.0009766 Z"/>
</svg>