<svg xmlns="http://www.w3.org/2000/svg"
 xmlns:xlink="http://www.w3.org/1999/xlink"
 width="13px" height="16px"  viewBox="0 0 13 16">
<path fill-rule="evenodd"  fill="#d9d9d9"
 d="M9.722717,3.2753906 C8.176514,1.5644531 5.5671387,1.6782227 3.8322144,2.9990234 C2.3533325,4.123535 1.3083496,6.6220703 2.5511475,8.322266 C2.8052368,8.668457 3.1773682,8.881348 3.5895996,8.967285 C3.699585,8.989746 3.7879639,8.935547 3.826538,8.830566 C3.909912,8.603027 3.9988403,8.389648 4.0180664,8.146484 C4.0253906,8.053223 3.9520264,8.000977 3.8759766,7.9970703 C2.7487183,6.7387695 3.5144043,5.1713867 4.612854,4.2026367 C5.5839844,3.3461914 7.3673096,2.543457 8.50885,3.5307617 C9.29657,4.2109375 9.356506,5.4838867 9.318726,6.444824 C9.271362,7.651367 8.857117,8.922852 7.6260376,9.306152 C7.220581,9.431641 6.751709,9.382324 6.482666,9.018555 C6.178589,8.608398 6.276123,8.115234 6.3913574,7.6625977 C6.5686035,6.9663086 6.9889526,5.980957 6.5909424,5.291992 C6.109009,4.458008 5.1383667,5.2158203 4.857971,5.777832 C4.687195,6.119629 4.3796997,7.215332 4.833618,7.496582 C4.3511963,8.736328 4.025879,10.100098 3.8059082,11.408691 C3.7070312,11.995117 3.6160278,12.64209 3.7254639,13.235352 C3.7313232,13.266602 3.856018,13.712402 3.980896,13.88623 C3.9614258,13.999023 4.1243896,14.0390625 4.189392,13.950684 C4.633423,13.346191 5.088196,12.76709 5.333252,12.045898 C5.463379,11.663086 5.5116577,11.243652 5.5895996,10.84668 C5.644165,10.569336 5.7559814,10.25293 5.7842407,9.95752 C5.786072,9.957031 5.7876587,9.956055 5.7894897,9.956055 C6.1729126,10.254883 6.6886597,10.508301 7.144165,10.598633 C7.8604126,10.740234 8.704651,10.469238 9.289673,10.057617 C9.379089,9.994629 9.468567,9.919434 9.554749,9.834961 C9.825134,9.652344 10.071777,9.414551 10.282471,9.114746 C11.494507,7.3911133 11.083008,4.7802734 9.722717,3.2753906 ZM3.6203003,8.281738 C3.630005,8.292969 3.6401978,8.30127 3.6505127,8.309082 C3.644104,8.32373 3.636963,8.337402 3.630249,8.352539 C3.6157227,8.333008 3.6003418,8.313965 3.5856323,8.29541 C3.5888062,8.276855 3.588562,8.258789 3.5845947,8.240723 C3.5966797,8.253906 3.607666,8.268555 3.6203003,8.281738 ZM2.867859,4.8671875 C2.7543945,5.067871 2.6583252,5.2734375 2.5791016,5.48584 C2.6419067,5.257324 2.7266235,5.036133 2.831787,4.8222656 C2.8469849,4.82959 2.8637085,4.833008 2.8809814,4.835449 C2.8764038,4.8461914 2.8721924,4.8569336 2.867859,4.8671875 ZM9.759338,4.0131836 C9.741394,3.989746 9.719849,3.9711914 9.696289,3.956543 C9.69104,3.9492188 9.684265,3.9438477 9.678467,3.9365234 C9.670776,3.9111328 9.661743,3.8867188 9.6536255,3.8613281 C9.72229,3.9506836 9.788208,4.0424805 9.849548,4.138672 C9.820374,4.0966797 9.79071,4.0546875 9.759338,4.0131836 Z"/>
</svg>