<svg xmlns="http://www.w3.org/2000/svg"
 xmlns:xlink="http://www.w3.org/1999/xlink"
 width="16px" height="15px"  viewBox="0 0 16 15">
<path fill-rule="evenodd"  fill="#d9d9d9"
 d="M13.375793,9.169922 C13.459106,8.769531 13.500732,8.378418 13.500732,7.9990234 C13.500732,7.253418 13.356323,6.541504 13.067261,5.8618164 C12.778168,5.1816406 12.387451,4.595703 11.895142,4.1035156 C11.402832,3.6113281 10.816895,3.2202148 10.137207,2.9311523 C9.457214,2.6425781 8.745056,2.4980469 8.000153,2.4980469 C7.619873,2.4980469 7.2291565,2.540039 6.8280334,2.6235352 C6.2862854,2.206543 5.67688,1.9980469 4.999634,1.9980469 C4.171417,1.9980469 3.4642944,2.2910156 2.8782349,2.8769531 C2.2921753,3.4628906 1.9992065,4.169922 1.9992065,4.998047 C1.9992065,5.6757812 2.207611,6.2841797 2.6242676,6.82666 C2.5409546,7.227539 2.4992065,7.618164 2.4992065,7.9990234 C2.4992065,8.743652 2.6437378,9.455566 2.9328003,10.13623 C3.2218933,10.81543 3.6126099,11.401367 4.1049194,11.893555 C4.5971375,12.38623 5.1831665,12.776855 5.862976,13.065918 C6.5427246,13.35498 7.255127,13.499512 8.0000305,13.499512 C8.380188,13.499512 8.771027,13.458008 9.172363,13.374023 C9.713776,13.791016 10.323303,13.999512 11.000427,13.999512 C11.828644,13.999512 12.535889,13.707031 13.121613,13.120605 C13.707642,12.534668 14.00061,11.827637 14.00061,10.999512 C14.00061,10.321777 13.792358,9.712891 13.375793,9.169922 ZM10.906494,10.331055 C10.734711,10.635742 10.50412,10.879883 10.215027,11.061523 C9.925964,11.244141 9.606995,11.383789 9.257965,11.47998 C8.908936,11.576172 8.544434,11.624512 8.164124,11.624512 C7.2838745,11.624512 6.5259094,11.454102 5.890442,11.112793 C5.254822,10.771484 4.937134,10.360352 4.937134,9.881836 C4.937134,9.647949 5.0036316,9.45166 5.136383,9.295898 C5.269226,9.13916 5.465851,9.061035 5.7263184,9.061035 C5.8773804,9.061035 6.017914,9.103516 6.1481323,9.186035 C6.2783813,9.269531 6.3981934,9.369629 6.507599,9.487305 C6.6171265,9.604492 6.7354736,9.72168 6.863159,9.838867 C6.9907837,9.956055 7.160034,10.056641 7.370941,10.139648 C7.58197,10.223633 7.8202515,10.265137 8.08609,10.265137 C8.424622,10.265137 8.697998,10.19873 8.906525,10.065918 C9.114929,9.933105 9.219055,9.765137 9.219055,9.562012 C9.219055,9.353516 9.135742,9.196777 8.969116,9.092773 C8.854675,9.02002 8.562866,8.92627 8.093994,8.811035 C8.093994,8.811035 6.953125,8.530273 6.953125,8.530273 C6.6405945,8.457031 6.372345,8.372559 6.1482544,8.276367 C5.9243164,8.1796875 5.715912,8.053711 5.5231934,7.8969727 C5.330475,7.741211 5.184662,7.5444336 5.0856934,7.307617 C4.9866943,7.0703125 4.937256,6.793457 4.937256,6.475586 C4.937256,6.095215 5.0244446,5.7597656 5.1989746,5.4716797 C5.3733826,5.1816406 5.6053467,4.9555664 5.8943176,4.791992 C6.1834106,4.6274414 6.49469,4.504883 6.8280334,4.42334 C7.1614075,4.34375 7.505188,4.3027344 7.859375,4.3027344 C8.359619,4.3027344 8.833496,4.362793 9.281555,4.48291 C9.729462,4.6030273 10.099335,4.7788086 10.39093,5.0097656 C10.682648,5.242676 10.82843,5.501465 10.82843,5.7875977 C10.82843,6.0214844 10.754395,6.222168 10.605743,6.38916 C10.457428,6.555664 10.260803,6.638672 10.016022,6.638672 C9.880524,6.638672 9.755554,6.607422 9.640991,6.544922 C9.526337,6.48291 9.42218,6.4072266 9.328339,6.3183594 C9.234497,6.2299805 9.135498,6.1430664 9.03125,6.057617 C8.927124,5.9716797 8.786591,5.8964844 8.60965,5.8339844 C8.4322815,5.772461 8.231781,5.7407227 8.007935,5.7407227 C7.2578735,5.7407227 6.8827515,5.940918 6.8827515,6.342285 C6.8827515,6.4311523 6.902313,6.5097656 6.941345,6.57666 C6.9803467,6.6445312 7.0233765,6.6987305 7.0701904,6.7407227 C7.1170044,6.782715 7.19516,6.824707 7.3045654,6.8657227 C7.414093,6.9072266 7.505188,6.9375 7.5780945,6.9555664 C7.651001,6.9746094 7.7657776,7.001465 7.921997,7.038086 C7.921997,7.038086 8.734497,7.2246094 8.734497,7.2246094 C8.989838,7.282715 9.217682,7.3427734 9.418304,7.404297 C9.6188965,7.4677734 9.83371,7.5561523 10.062927,7.67041 C10.292053,7.7856445 10.482239,7.913086 10.633209,8.053223 C10.784363,8.193848 10.910614,8.372559 11.012238,8.588867 C11.113953,8.8046875 11.164673,9.042969 11.164673,9.303711 C11.164429,9.684082 11.078613,10.026855 10.906494,10.331055 Z"/>
</svg>