<svg xmlns="http://www.w3.org/2000/svg" width="140.45" height="21.49" viewBox="0 0 140.45 21.49">
	<style type="text/css">
		.st1{fill:#000000;}
		.st0{fill:#272525;}
	</style>
	<path class="st0" d="M11.7,0.14L15.51,0.14L15.51,0.28C14.74,0.28 14.77,0.48 14.77,1.43L14.77,9.66C14.77,10.72 14.9,10.97 15.66,10.97L15.66,11.11L10.91,11.11L10.91,10.97C11.64,10.97 11.7,10.72 11.7,9.66L11.7,0.56L7.66,11.25L7.52,11.25L2.47,1.87L2.47,6.98C2.47,8.99 3.05,10.97 4.86,10.97L4.86,11.11L0,11.11L0,10.97C1.66,10.97 2.33,9.02 2.33,6.98L2.33,1.63C1.72,0.56 1.23,0.31 0.79,0.28L0.79,0.14L5.23,0.14L9.01,7.31Z"/>
	<path class="st0" d="M25.95,0.14L25.95,0.26C25.29,0.26 24.93,0.28 24.93,1.65L24.93,9.35C24.93,10.83 25.29,10.97 25.95,10.97L25.95,11.11L20.8,11.11L20.8,10.97C21.46,10.97 21.82,10.83 21.82,9.35L21.82,1.65C21.82,0.28 21.47,0.26 20.8,0.26L20.8,0.14Z"/>
	<path class="st0" d="M41.24,7.37L41.39,10.52C40.97,10.8 39.4,11.25 37.75,11.25C34.41,11.25 31.45,9.15 31.45,5.62C31.45,2.1 34.41,0 37.75,0C39.76,0 41.02,0.42 41.39,0.71L41.24,3.86L41.11,3.86C40.65,0.63 38.88,0.14 37.75,0.14C36.02,0.14 35.28,1.35 35.28,5.62C35.28,9.91 36.06,11.11 37.75,11.11C38.81,11.11 40.58,10.47 41.11,7.37Z"/>
	<path class="st0" d="M53.36,3.11C53.36,0.13 52.96,0.28 51.13,0.28L50.65,0.28L50.65,5.9L51.13,5.9C53.16,5.9 53.36,5.93 53.36,3.11M58.38,10.97L58.38,11.11L55.28,11.11C54.18,11.11 53.83,10.41 53.46,7.51C53.26,5.95 51.38,6.04 51.38,6.04L50.65,6.04L50.65,9.35C50.65,10.88 50.72,10.97 51.37,10.97L51.37,11.11L46.71,11.11L46.71,10.97C47.38,10.97 47.52,10.94 47.52,9.35L47.52,1.65C47.52,0.68 47.39,0.26 46.71,0.26L46.71,0.13L51.13,0.13C54.24,0.13 57.03,0.51 57.03,3.11C57.03,5.45 54.88,5.93 53.38,5.93C55.17,5.93 56.08,6.32 56.84,9.13C57.15,10.31 57.98,10.94 58.38,10.97"/>
	<path class="st0" d="M70.71,5.7C70.71,1.43 70.65,0.14 68.81,0.14C66.95,0.14 66.88,1.43 66.88,5.7C66.88,9.99 66.95,11.11 68.81,11.11C70.65,11.11 70.71,9.99 70.71,5.7M74.5,5.7C74.5,8.8 72.24,11.25 68.81,11.25C65.38,11.25 63.12,8.8 63.12,5.7C63.12,2.61 65.38,0 68.81,0C72.24,0 74.5,2.61 74.5,5.7"/>
	<path class="st0" d="M96.17,0.14L96.17,0.26C95.54,0.26 94.59,0.74 93.45,3.49L90.73,11.11L90.16,11.11C88.71,7.73 87.78,5.55 87.16,4.13L84.66,11.11L84.1,11.11C80.17,1.93 79.97,1.52 79.97,1.52C79.44,0.28 79.22,0.29 78.82,0.26L78.82,0.14L83.68,0.14L83.68,0.26C82.68,0.26 83.48,2.07 83.48,2.07L85.83,7.42L87.08,3.94C86.13,1.73 86.03,1.52 86.03,1.52C85.5,0.28 85.28,0.29 84.88,0.26L84.88,0.14L89.74,0.14L89.74,0.26C88.75,0.26 89.54,2.07 89.54,2.07L91.88,7.43L93.28,3.49C93.67,2.38 93.33,0.26 91.74,0.26L91.74,0.14Z"/>
	<path class="st0" d="M103.66,4.44L102.27,7.95L105.22,7.95ZM105.24,0.14L105.31,0.14C109.26,9.18 109.52,9.69 109.52,9.69C110.08,10.94 110.61,10.95 110.93,10.99L110.93,11.11L105.47,11.11L105.47,10.99C106.72,10.99 105.78,9.16 105.78,9.16L105.28,8.09L102.23,8.09C101.91,8.8 102.2,10.99 104.07,10.99L104.07,11.11L99.58,11.11L99.58,10.99C100.04,10.95 100.89,10.83 102.09,8.09Z"/>
	<path class="st0" d="M126.23,0.14L126.23,0.26C125.56,0.26 124.56,0.74 123.35,3.49L120.28,11.11L119.83,11.11C115.65,1.93 115.43,1.52 115.43,1.52C114.87,0.28 114.63,0.29 114.2,0.26L114.2,0.14L119.39,0.14L119.39,0.26C118.31,0.26 119.17,2.07 119.17,2.07L121.59,7.45L123.19,3.49C123.66,2.33 123.38,0.26 121.51,0.26L121.51,0.14Z"/>
	<path class="st0" d="M140.45,8.05L140.45,11.11L131.34,11.11L131.34,10.97C132,10.97 132.25,10.03 132.25,8.97L132.25,2.29C132.25,1.32 132.03,0.26 131.34,0.26L131.34,0.14L140.24,0.14L140.24,3.33L140.1,3.33C140.1,0.29 135.85,0.28 135.85,0.28L135.29,0.28L135.29,5.5L136.55,5.5C136.56,5.5 138.22,5.54 138.39,3.66L138.53,3.66L138.53,7.48L138.39,7.48C138.22,5.61 136.56,5.64 136.55,5.64L135.29,5.64L135.29,10.97L135.85,10.97C135.85,10.97 140.31,11.14 140.31,8.05Z"/>
	<path class="st1" d="M37.53,17.11L38.59,17.11L38.59,21.44L37.53,21.44L37.53,19.65L35.86,19.65L35.86,21.44L34.81,21.44L34.81,17.11L35.86,17.11L35.86,18.85L37.53,18.85Z"/>
	<path class="st1" d="M44.36,19.91L45.38,19.91L44.87,18.37ZM45.89,21.44L45.65,20.72L44.09,20.72L43.85,21.44L42.73,21.44L44.23,17.1L45.52,17.1L47.02,21.44Z"/>
	<path class="st1" d="M52.21 -4.37L51.16 -4.37L51.16 -0.04L52.21 -0.04Z"/>
	<path class="st1" d="M57.82,17.92L57.82,18.96L58.47,18.96C58.63,18.96 58.76,18.91 58.85,18.82C58.94,18.72 58.99,18.6 58.99,18.44C58.99,18.29 58.94,18.16 58.85,18.06C58.75,17.97 58.63,17.92 58.47,17.92ZM57.82,19.76L57.82,21.44L56.76,21.44L56.76,17.11L58.47,17.11C58.97,17.11 59.36,17.24 59.64,17.5C59.92,17.76 60.06,18.07 60.06,18.44C60.06,18.69 59.99,18.94 59.84,19.17C59.68,19.41 59.43,19.58 59.09,19.68L60.15,21.44L58.92,21.44L57.94,19.76Z"/>
	<path class="st1" d="M71.45,17.88C71.32,17.88 71.21,17.92 71.13,17.99C71.04,18.06 71,18.16 71,18.29C71,18.42 71.04,18.53 71.12,18.61C71.2,18.69 71.3,18.75 71.42,18.79C71.55,18.84 71.69,18.88 71.84,18.92C72,18.96 72.15,19 72.3,19.06C72.45,19.11 72.59,19.18 72.72,19.27C72.84,19.35 72.95,19.46 73.02,19.61C73.1,19.76 73.14,19.94 73.14,20.15C73.14,20.52 72.99,20.83 72.69,21.09C72.4,21.36 72,21.49 71.52,21.49C71.03,21.49 70.64,21.37 70.34,21.13C70.04,20.9 69.89,20.57 69.89,20.13L71.01,20.13C71.04,20.48 71.22,20.65 71.54,20.65C71.7,20.65 71.81,20.61 71.9,20.53C71.99,20.45 72.03,20.35 72.03,20.23C72.03,20.1 71.99,20 71.91,19.93C71.84,19.85 71.73,19.79 71.61,19.74C71.48,19.7 71.34,19.65 71.19,19.61C71.04,19.57 70.88,19.53 70.73,19.47C70.58,19.41 70.44,19.34 70.31,19.26C70.19,19.18 70.09,19.07 70.01,18.92C69.93,18.77 69.89,18.59 69.89,18.38C69.89,17.98 70.04,17.66 70.34,17.42C70.64,17.17 71.02,17.05 71.49,17.05C71.96,17.05 72.34,17.16 72.62,17.37C72.91,17.58 73.06,17.92 73.07,18.37L71.93,18.37C71.91,18.22 71.86,18.09 71.77,18.01C71.69,17.93 71.58,17.88 71.45,17.88"/>
	<path class="st1" d="M78.82,19.91L79.84,19.91L79.33,18.37ZM80.35,21.44L80.11,20.72L78.55,20.72L78.31,21.44L77.19,21.44L78.7,17.1L79.98,17.1L81.48,21.44Z"/>
	<path class="st1" d="M85.62,17.11L86.68,17.11L86.68,20.64L87.99,20.64L87.99,21.44L85.62,21.44Z"/>
	<path class="st1" d="M95,20.17C95.2,19.95 95.31,19.64 95.31,19.27C95.31,18.89 95.2,18.59 95,18.36C94.79,18.13 94.51,18.02 94.16,18.02C93.82,18.02 93.54,18.13 93.33,18.36C93.12,18.59 93.02,18.89 93.02,19.27C93.02,19.64 93.12,19.95 93.33,20.17C93.54,20.4 93.82,20.51 94.16,20.51C94.51,20.51 94.79,20.4 95,20.17M92.59,20.86C92.16,20.44 91.95,19.91 91.95,19.27C91.95,18.62 92.16,18.1 92.59,17.68C93.02,17.26 93.55,17.05 94.17,17.05C94.79,17.05 95.32,17.26 95.74,17.68C96.17,18.1 96.38,18.62 96.38,19.27C96.38,19.91 96.17,20.44 95.74,20.86C95.31,21.28 94.79,21.48 94.17,21.48C93.55,21.48 93.02,21.28 92.59,20.86"/>
	<path class="st1" d="M103.5,17.1L104.56,17.1L104.56,21.44L103.5,21.44L101.74,18.71L101.74,21.44L100.68,21.44L100.68,17.1L101.74,17.1L103.5,19.83Z"/>
</svg>