<svg xmlns="http://www.w3.org/2000/svg" width="105.46" height="28.31" viewBox="0 0 105.46 28.31">
	<style type="text/css">
		.st1{fill:#000000;}
		.st0{fill:#272525;}
	</style>
	<path class="st0" d="M4.81,5.12L4.81,7.43C5.8,5.78 7.39,4.95 9.57,4.95C11.37,4.95 12.83,5.55 13.94,6.75C15.06,7.95 15.62,9.59 15.62,11.65L15.62,20.83L10.83,20.83L10.83,12.3C10.83,11.28 10.57,10.5 10.03,9.95C9.5,9.39 8.76,9.12 7.82,9.12C6.88,9.12 6.15,9.39 5.61,9.95C5.08,10.5 4.81,11.28 4.81,12.3L4.81,20.83L0,20.83L0,5.12Z"/>
	<path class="st0" d="M28.99,15.85C29.69,15.17 30.04,14.21 30.04,12.97C30.04,11.74 29.69,10.78 28.99,10.12C28.3,9.45 27.5,9.12 26.6,9.12C25.7,9.12 24.9,9.45 24.21,10.13C23.51,10.81 23.17,11.76 23.17,13C23.17,14.24 23.51,15.19 24.21,15.86C24.9,16.53 25.7,16.86 26.6,16.86C27.5,16.86 28.3,16.52 28.99,15.85M20.35,18.77C18.96,17.27 18.27,15.35 18.27,13C18.27,10.66 18.96,8.73 20.35,7.22C21.74,5.71 23.43,4.95 25.43,4.95C27.43,4.95 28.97,5.69 30.04,7.17L30.04,5.12L34.85,5.12L34.85,20.83L30.04,20.83L30.04,18.55C28.87,20.2 27.31,21.03 25.36,21.03C23.41,21.03 21.74,20.28 20.35,18.77"/>
	<path class="st0" d="M45.46,16.75L47.18,16.75L47.18,20.83L44.73,20.83C42.97,20.83 41.6,20.44 40.64,19.66C39.67,18.88 39.19,17.54 39.19,15.65L39.19,9.12L37.72,9.12L37.72,5.12L39.19,5.12L39.19,1.29L44,1.29L44,5.12L47.15,5.12L47.15,9.12L44,9.12L44,15.65C44,16.38 44.49,16.75 45.46,16.75"/>
	<path class="st0" d="M60.86,5.12L65.68,5.12L65.68,20.83L60.86,20.83L60.86,18.52C59.87,20.17 58.28,21 56.11,21C54.3,21 52.84,20.4 51.73,19.2C50.61,18 50.05,16.36 50.05,14.3L50.05,5.12L54.84,5.12L54.84,13.65C54.84,14.66 55.11,15.45 55.64,16C56.18,16.55 56.91,16.83 57.85,16.83C58.79,16.83 59.53,16.55 60.06,16C60.6,15.45 60.86,14.66 60.86,13.65Z"/>
	<path class="st0" d="M74.43,5.12L74.43,8.05C75.56,5.98 77.06,4.95 78.94,4.95L78.94,9.85L77.76,9.85C76.65,9.85 75.82,10.11 75.26,10.64C74.71,11.16 74.43,12.08 74.43,13.4L74.43,20.83L69.62,20.83L69.62,5.12Z"/>
	<path class="st0" d="M90.85,15.85C91.54,15.17 91.89,14.21 91.89,12.97C91.89,11.74 91.54,10.78 90.85,10.12C90.15,9.45 89.36,9.12 88.45,9.12C87.55,9.12 86.76,9.45 86.06,10.13C85.37,10.81 85.02,11.76 85.02,13C85.02,14.24 85.37,15.19 86.06,15.86C86.76,16.53 87.55,16.86 88.45,16.86C89.36,16.86 90.15,16.52 90.85,15.85M82.2,18.77C80.82,17.27 80.12,15.35 80.12,13C80.12,10.66 80.82,8.73 82.2,7.22C83.59,5.71 85.29,4.95 87.29,4.95C89.29,4.95 90.82,5.69 91.89,7.17L91.89,5.12L96.7,5.12L96.7,20.83L91.89,20.83L91.89,18.55C90.73,20.2 89.17,21.03 87.22,21.03C85.26,21.03 83.59,20.28 82.2,18.77"/>
	<path class="st0" d="M105.46 -28.31L100.65 -28.31L100.65 -7.48L105.46 -7.48Z"/>
	<path class="st1" d="M5.18,23.58L5.18,28.3L4.41,28.3L4.41,25.07L2.97,28.3L2.43,28.3L0.98,25.07L0.98,28.3L0.21,28.3L0.21,23.58L1.04,23.58L2.7,27.29L4.35,23.58Z"/>
	<path class="st1" d="M11.33 -4.73L10.55 -4.73L10.55 0L11.33 0Z"/>
	<path class="st1" d="M19.81,23.57L20.58,23.57L20.58,28.3L19.81,28.3L17.48,24.78L17.48,28.3L16.7,28.3L16.7,23.57L17.48,23.57L19.81,27.09Z"/>
	<path class="st1" d="M28.56,23.57L28.56,24.18L26.73,24.18L26.73,25.61L28.36,25.61L28.36,26.21L26.73,26.21L26.73,27.7L28.56,27.7L28.56,28.3L25.95,28.3L25.95,23.57Z"/>
	<path class="st1" d="M34.64,24.18L34.64,25.78L35.5,25.78C35.79,25.78 36.01,25.71 36.16,25.57C36.3,25.43 36.37,25.23 36.37,24.98C36.37,24.73 36.3,24.54 36.16,24.4C36.01,24.25 35.79,24.18 35.5,24.18ZM34.64,26.39L34.64,28.3L33.87,28.3L33.87,23.58L35.5,23.58C36.03,23.58 36.45,23.71 36.74,23.98C37.03,24.24 37.17,24.58 37.17,24.99C37.17,25.3 37.07,25.59 36.88,25.84C36.69,26.1 36.39,26.26 35.99,26.34L37.25,28.3L36.3,28.3L35.12,26.39Z"/>
	<path class="st1" d="M43.6,26.73L45.15,26.73L44.38,24.51ZM45.7,28.3L45.36,27.34L43.39,27.34L43.04,28.3L42.24,28.3L43.93,23.57L44.83,23.57L46.52,28.3Z"/>
	<path class="st1" d="M51.6,23.58L52.38,23.58L52.38,27.71L53.98,27.71L53.98,28.3L51.6,28.3Z"/>
	<path class="st1" d="M70.69,23.58L71.52,23.58L70.12,28.3L69.24,28.3L68.25,24.73L67.19,28.3L66.32,28.31L64.98,23.58L65.81,23.58L66.79,27.43L67.85,23.58L68.72,23.58L69.7,27.41Z"/>
	<path class="st1" d="M77.59,26.73L79.15,26.73L78.37,24.51ZM79.7,28.3L79.36,27.34L77.38,27.34L77.04,28.3L76.23,28.3L77.92,23.57L78.82,23.57L80.51,28.3Z"/>
	<path class="st1" d="M85.35,24.18L85.35,23.58L88.65,23.58L88.65,24.18L87.39,24.18L87.39,28.3L86.62,28.3L86.62,24.18Z"/>
	<path class="st1" d="M96.39,23.57L96.39,24.18L94.56,24.18L94.56,25.61L96.19,25.61L96.19,26.21L94.56,26.21L94.56,27.7L96.39,27.7L96.39,28.3L93.78,28.3L93.78,23.57Z"/>
	<path class="st1" d="M102.47,24.18L102.47,25.78L103.33,25.78C103.62,25.78 103.84,25.71 103.99,25.57C104.13,25.43 104.2,25.23 104.2,24.98C104.2,24.73 104.13,24.54 103.99,24.4C103.84,24.25 103.62,24.18 103.33,24.18ZM102.47,26.39L102.47,28.3L101.7,28.3L101.7,23.58L103.33,23.58C103.86,23.58 104.28,23.71 104.57,23.98C104.86,24.24 105,24.58 105,24.99C105,25.3 104.9,25.59 104.71,25.84C104.52,26.1 104.22,26.26 103.82,26.34L105.08,28.3L104.13,28.3L102.95,26.39Z"/>
</svg>