<svg xmlns="http://www.w3.org/2000/svg"
 xmlns:xlink="http://www.w3.org/1999/xlink"
 width="27px" height="26px"  viewBox="0 0 27 26">
<path fill-rule="evenodd"  fill="#ffffff"
 d="M9.09552,7.900879 C8.573761,9.42749 8.365021,11.157227 8.260651,12.989014 C8.260651,12.989014 13.478027,12.989014 13.478027,12.989014 C13.478027,12.989014 13.478027,7.900879 13.478027,7.900879 C13.478027,7.900879 9.09552,7.900879 9.09552,7.900879 ZM7.217285,14.007568 C7.217285,14.007568 1.9998169,14.007568 1.9998169,14.007568 C2.104187,15.838623 2.6259155,17.569092 3.460785,19.09497 C3.460785,19.09497 7.9476624,19.09497 7.9476624,19.09497 C7.530304,17.569092 7.3215637,15.838623 7.217285,14.007568 ZM9.408508,6.8828125 C9.408508,6.8828125 13.478027,6.8828125 13.478027,6.8828125 C13.478027,6.8828125 13.478027,2.4047852 13.478027,2.4047852 C11.808441,2.7109375 10.347717,4.4404297 9.408508,6.8828125 ZM14.521606,2.4047852 C14.521606,2.4047852 14.521606,6.8828125 14.521606,6.8828125 C14.521606,6.8828125 18.591125,6.8828125 18.591125,6.8828125 C17.651917,4.4404297 16.19107,2.7109375 14.521606,2.4047852 ZM18.904114,7.900879 C18.904114,7.900879 14.521606,7.900879 14.521606,7.900879 C14.521606,7.900879 14.521606,12.989014 14.521606,12.989014 C14.521606,12.989014 19.738953,12.989014 19.738953,12.989014 C19.634583,11.157227 19.425842,9.42749 18.904114,7.900879 ZM20.782318,14.007568 C20.782318,15.838623 20.46933,17.569092 20.051971,19.09497 C20.051971,19.09497 24.538849,19.09497 24.538849,19.09497 C25.373688,17.569092 25.895447,15.838623 25.999817,14.007568 C25.999817,14.007568 20.782318,14.007568 20.782318,14.007568 ZM8.260651,14.007568 C8.365021,15.838623 8.573761,17.569092 9.09552,19.09497 C9.09552,19.09497 13.478027,19.09497 13.478027,19.09497 C13.478027,19.09497 13.478027,14.007568 13.478027,14.007568 C13.478027,14.007568 8.260651,14.007568 8.260651,14.007568 ZM3.460785,7.900879 C2.6259155,9.42749 2.104187,11.157227 1.9998169,12.989014 C1.9998169,12.989014 7.217285,12.989014 7.217285,12.989014 C7.3215637,11.157227 7.530304,9.42749 7.9476624,7.900879 C7.9476624,7.900879 3.460785,7.900879 3.460785,7.900879 ZM9.408508,20.113037 C10.347717,22.55542 11.808563,24.285889 13.478027,24.591064 C13.478027,24.591064 13.478027,20.113037 13.478027,20.113037 C13.478027,20.113037 9.408508,20.113037 9.408508,20.113037 ZM8.260651,20.113037 C8.260651,20.113037 4.0867615,20.113037 4.0867615,20.113037 C5.860718,22.55542 8.469391,24.388184 11.599823,24.997803 C10.243225,24.081787 9.09552,22.352295 8.260651,20.113037 ZM19.634583,20.113037 C18.904114,22.352295 17.756287,24.081787 16.295319,24.997803 C19.425842,24.388184 22.138916,22.657715 23.808472,20.113037 C23.808472,20.113037 19.634583,20.113037 19.634583,20.113037 ZM16.39981,1.9980469 C17.756287,2.9135742 18.904114,4.6445312 19.738953,6.8828125 C19.738953,6.8828125 23.912842,6.8828125 23.912842,6.8828125 C22.138916,4.4404297 19.530212,2.6083984 16.39981,1.9980469 ZM4.1911316,6.8828125 C4.1911316,6.8828125 8.365021,6.8828125 8.365021,6.8828125 C9.095398,4.6445312 10.243225,2.9135742 11.704193,1.9980469 C8.573761,2.6083984 5.860718,4.338867 4.1911316,6.8828125 ZM14.521606,20.113037 C14.521606,20.113037 14.521606,24.591064 14.521606,24.591064 C16.19107,24.285889 17.651917,22.55542 18.591125,20.113037 C18.591125,20.113037 14.521606,20.113037 14.521606,20.113037 ZM14.521606,14.007568 C14.521606,14.007568 14.521606,19.09497 14.521606,19.09497 C14.521606,19.09497 18.904114,19.09497 18.904114,19.09497 C19.425842,17.569092 19.634583,15.838623 19.738953,14.007568 C19.738953,14.007568 14.521606,14.007568 14.521606,14.007568 ZM24.538849,7.900879 C24.538849,7.900879 20.051971,7.900879 20.051971,7.900879 C20.46933,9.42749 20.67807,11.157227 20.782318,12.989014 C20.782318,12.989014 25.999817,12.989014 25.999817,12.989014 C25.895447,11.157227 25.373688,9.42749 24.538849,7.900879 Z"/>
</svg>