<svg xmlns="http://www.w3.org/2000/svg"
 xmlns:xlink="http://www.w3.org/1999/xlink"
 width="27px" height="26px"  viewBox="0 0 27 26">
<path fill-rule="evenodd"  fill="#111c39"
 d="M19.497559,5.925049 C19.497559,5.385254 19.286987,4.8776855 18.905273,4.4956055 C18.905273,4.4956055 16.999634,2.5898438 16.999634,2.5898438 C16.623291,2.2138672 16.08899,1.9975586 15.557251,1.9975586 C15.557251,1.9975586 15.441528,1.9975586 15.441528,1.9975586 C15.441528,1.9975586 15.441528,6.0407715 15.441528,6.0407715 C15.441528,6.0407715 19.497559,6.0407715 19.497559,6.0407715 C19.497559,6.0407715 19.497559,5.925049 19.497559,5.925049 C19.497559,5.925049 19.497559,5.925049 19.497559,5.925049 ZM14.305664,15.903809 C14.43457,15.511475 14.659668,15.1467285 14.953247,14.851074 C14.953247,14.851074 19.515503,10.307373 19.515503,10.307373 C19.515503,10.307373 19.515503,7.38916 19.515503,7.38916 C19.515503,7.38916 14.780762,7.38916 14.780762,7.38916 C14.408203,7.38916 14.128784,7.087158 14.128784,6.715332 C14.128784,6.715332 14.128784,1.9975586 14.128784,1.9975586 C14.128784,1.9975586 4.0213623,1.9975586 4.0213623,1.9975586 C2.9066162,1.9975586 1.9997559,2.9047852 1.9997559,4.0197754 C1.9997559,4.0197754 1.9997559,22.976074 1.9997559,22.976074 C1.9997559,24.091064 2.9066162,24.997803 4.0213623,24.997803 C4.0213623,24.997803 17.476074,24.997803 17.476074,24.997803 C18.59082,24.997803 19.515503,24.091064 19.515503,22.976074 C19.515503,22.976074 19.515503,17.94751 19.515503,17.94751 C19.515503,17.94751 18.775024,18.669922 18.775024,18.669922 C18.474976,18.96753 18.123535,19.184082 17.72754,19.316162 C17.72754,19.316162 15.584961,20.031006 15.584961,20.031006 C15.584961,20.031006 15.258423,20.049316 15.258423,20.049316 C14.718994,20.049316 14.208252,19.786621 13.891113,19.346924 C13.576416,18.909424 13.490967,18.34253 13.662109,17.82959 C13.662109,17.82959 14.305664,15.903809 14.305664,15.903809 ZM5.3690186,14.126221 C5.3690186,14.126221 12.085449,14.126221 12.085449,14.126221 C12.457764,14.126221 12.759277,14.428467 12.759277,14.80127 C12.759277,15.17334 12.457764,15.475098 12.085449,15.475098 C12.085449,15.475098 5.3690186,15.475098 5.3690186,15.475098 C4.99646,15.475098 4.6951904,15.17334 4.6951904,14.80127 C4.6951904,14.428467 4.99646,14.126221 5.3690186,14.126221 ZM4.6951904,12.105225 C4.6951904,11.733398 4.99646,11.4313965 5.3690186,11.4313965 C5.3690186,11.4313965 12.085449,11.4313965 12.085449,11.4313965 C12.457764,11.4313965 12.759277,11.733398 12.759277,12.105225 C12.759277,12.477783 12.457764,12.779053 12.085449,12.779053 C12.085449,12.779053 5.3690186,12.779053 5.3690186,12.779053 C4.99646,12.779053 4.6951904,12.477783 4.6951904,12.105225 ZM4.6951904,17.496338 C4.6951904,17.12378 4.99646,16.82251 5.3690186,16.82251 C5.3690186,16.82251 12.085449,16.82251 12.085449,16.82251 C12.457764,16.82251 12.759277,17.12378 12.759277,17.496338 C12.759277,17.868652 12.457764,18.169678 12.085449,18.169678 C12.085449,18.169678 5.3690186,18.169678 5.3690186,18.169678 C4.99646,18.169678 4.6951904,17.868652 4.6951904,17.496338 ZM14.780762,20.865234 C15.153076,20.865234 15.45459,21.166504 15.45459,21.539062 C15.45459,21.911377 15.153198,22.213135 14.780762,22.213135 C14.780762,22.213135 10.737793,22.213135 10.737793,22.213135 C10.365234,22.213135 10.063965,21.911377 10.063965,21.539062 C10.063965,21.166504 10.365234,20.865234 10.737793,20.865234 C10.737793,20.865234 14.780762,20.865234 14.780762,20.865234 ZM5.3690186,10.083984 C4.99646,10.083984 4.6951904,9.782715 4.6951904,9.4104 C4.6951904,9.0373535 4.99646,8.736328 5.3690186,8.736328 C5.3690186,8.736328 14.780762,8.736328 14.780762,8.736328 C15.153076,8.736328 15.45459,9.0373535 15.45459,9.4104 C15.45459,9.782715 15.153076,10.083984 14.780762,10.083984 C14.780762,10.083984 5.3690186,10.083984 5.3690186,10.083984 ZM15.526367,16.499023 C15.526367,16.499023 14.940186,18.2583 14.940186,18.2583 C14.852295,18.521729 15.103027,18.77246 15.366333,18.683838 C15.366333,18.683838 17.124146,18.09668 17.124146,18.09668 C17.124146,18.09668 15.526367,16.499023 15.526367,16.499023 ZM20.759766,10.951172 C20.759766,10.951172 16.3219,15.388916 16.3219,15.388916 C16.3219,15.388916 18.235718,17.302979 18.235718,17.302979 C19.23877,16.300049 21.19043,14.347656 22.67334,12.864746 C22.67334,12.864746 20.759766,10.951172 20.759766,10.951172 ZM24.603882,9.018799 C24.366943,8.780518 24.01831,8.644531 23.648438,8.644531 C23.278564,8.644531 22.92981,8.780518 22.691528,9.019043 C22.691528,9.019043 21.712524,9.998535 21.712524,9.998535 C21.712524,9.998535 23.626099,11.911865 23.626099,11.911865 C24.161987,11.375732 24.532593,11.005127 24.605225,10.932861 C25.131714,10.405762 25.131592,9.547119 24.603882,9.018799 ZM24.605225,10.932861 C24.605225,10.932861 24.605225,10.932861 24.605347,10.932861 C24.607056,10.931152 24.607788,10.929932 24.609253,10.928711 C24.607788,10.929932 24.607056,10.931152 24.605225,10.932861 ZM24.609253,10.928711 C24.61145,10.926758 24.613892,10.923828 24.615234,10.923096 C24.613892,10.923828 24.61145,10.926758 24.609253,10.928711 ZM24.615234,10.923096 C24.619629,10.918945 24.619629,10.918701 24.615234,10.923096 C24.615234,10.923096 24.615234,10.923096 24.615234,10.923096 Z"/>
</svg>