<svg xmlns="http://www.w3.org/2000/svg" width="95.41" height="25.14" viewBox="0 0 95.41 25.14">
	<style type="text/css">
		.st0{fill:#272525;}
	</style>
	<path class="st0" d="M1.33,17.31L1.33,4.63C1.33,2.59 1.46,1.69 0,1.69L0,1.39L9.52,1.39L9.52,1.69C8.09,1.69 8.16,2.23 8.16,4.63L8.16,17.55C8.16,21.48 10.22,23.14 13.38,23.14C16.95,23.14 18.75,20.68 18.75,17.55L18.75,8.89C18.75,6.16 17.88,1.69 14.72,1.69L14.72,1.39L23.44,1.39L23.48,1.69C19.75,1.69 19.05,6.16 19.05,8.89L19.05,17.55C19.05,21.94 16.12,25.14 10.25,25.14C5.72,25.14 1.33,22.74 1.33,17.31"/>
	<path class="st0" d="M38.43,14.32C37.3,15.62 35.37,15.75 34.03,14.65C33.4,14.05 32.97,13.35 32.97,12.59C32.97,12.15 31.9,12.38 30.54,14.45L30.54,21.08C30.54,22.91 30.7,24.24 31.9,24.58L31.9,24.84L23.57,24.84L23.57,24.58C24.84,24.21 24.87,22.78 24.87,21.08L24.87,12.95C24.87,11.79 24.47,11.32 23.11,10.82L23.11,10.55L30.54,9.15L30.54,13.82C32.9,10.25 33.9,9.85 34.9,9.39C35.83,8.95 37.23,9.15 38.1,9.92C39.4,11.05 39.56,13.05 38.43,14.32"/>
	<path class="st0" d="M52.18,17.35C52.18,13.45 51.25,10.15 48.85,10.15C46.62,10.15 46.12,12.89 46.12,15.45L46.12,18.98C46.12,22.78 46.89,24.84 48.89,24.84C50.75,24.84 52.18,22.68 52.18,17.35M58.88,16.88C58.88,23.48 54.48,25.14 50.22,25.14C47.59,25.14 46.02,24.51 45.12,23.68C44.06,24.38 40.49,25.21 40.49,24.68L40.49,3.79C40.49,2.66 40.16,2.16 38.79,1.66L38.79,1.39L46.12,0L46.12,11.69C47.09,10.02 48.75,9.15 51.85,9.15C56.45,9.15 58.88,12.75 58.88,16.88"/>
	<path class="st0" d="M69,16.72C66.27,17.31 66.3,19.35 66.3,20.91C66.3,20.91 66.27,23.11 67.6,23.11C68.17,23.11 68.64,22.64 69,21.84ZM77.33,22.71C76.86,24.18 75.13,25.14 73.03,25.14C73.03,25.14 69.33,25.14 69.03,22.14C68.6,23.88 66.9,25.14 64.54,25.14C63.27,25.14 60.38,24.58 60.38,21.74C60.38,18.41 63.07,17.78 69,16.38L69,14.25C69,10.79 67.04,8.92 64.74,10.12C64.74,10.12 64.01,10.55 65.14,10.95C65.7,11.15 66.07,11.62 66.34,12.22C66.84,13.45 66.27,14.78 65.04,15.32C63.84,15.78 62.47,15.22 61.97,14.02C61.64,13.15 61.81,12.15 62.37,11.55C62.77,11.12 63.37,10.52 64.61,9.85C66.1,9.05 67.74,9.15 67.74,9.15C72.1,9.15 74.53,11.89 74.53,15.82L74.53,20.78C74.53,20.78 74.53,23.18 76.13,23.11C76.13,23.11 76.96,23.11 77.13,22.54Z"/>
	<path class="st0" d="M95.41,24.58L95.41,24.84L87.09,24.84L87.09,24.58C88.35,24.21 88.42,22.74 88.42,21.04L88.42,14.35C88.42,12.45 87.72,11.55 86.12,11.55C85.39,11.55 84.62,12.15 84.15,12.85L84.15,21.08C84.15,22.91 84.32,24.24 85.52,24.58L85.52,24.84L77.19,24.84L77.19,24.58C78.46,24.21 78.49,22.81 78.49,21.08L78.49,12.95C78.49,11.79 78.13,11.32 76.76,10.82L76.76,10.55L84.15,9.15L84.15,12.38C85.02,10.62 86.79,9.15 88.58,9.15C91.25,9.15 94.05,10.22 94.05,14.22L94.05,21.04C94.05,22.88 94.25,24.28 95.41,24.58"/>
</svg>